<svg width="229" height="59" viewBox="0 0 229 59" fill="none" xmlns="http://www.w3.org/2000/svg">
<path d="M4.9834 58H3.71191V49.5713L1.16211 50.5078V49.3594L4.78516 47.999H4.9834V58ZM14.9297 53.7549C14.9297 55.236 14.6768 56.3366 14.1709 57.0566C13.665 57.7767 12.8743 58.1367 11.7988 58.1367C10.737 58.1367 9.95085 57.7858 9.44043 57.084C8.93001 56.3776 8.66569 55.3249 8.64746 53.9258V52.2373C8.64746 50.7744 8.90039 49.6875 9.40625 48.9766C9.91211 48.2656 10.7051 47.9102 11.7852 47.9102C12.8561 47.9102 13.6445 48.2542 14.1504 48.9424C14.6562 49.626 14.916 50.6833 14.9297 52.1143V53.7549ZM13.665 52.0254C13.665 50.9544 13.5146 50.1751 13.2139 49.6875C12.9131 49.1953 12.4368 48.9492 11.7852 48.9492C11.138 48.9492 10.6663 49.193 10.3701 49.6807C10.0739 50.1683 9.92122 50.918 9.91211 51.9297V53.9531C9.91211 55.0286 10.0671 55.8239 10.377 56.3389C10.6914 56.8493 11.1654 57.1045 11.7988 57.1045C12.4232 57.1045 12.8857 56.863 13.1865 56.3799C13.4919 55.8968 13.6514 55.1357 13.665 54.0967V52.0254ZM24.459 56.0381C24.459 55.6963 24.3291 55.432 24.0693 55.2451C23.8141 55.0537 23.3652 54.8896 22.7227 54.7529C22.0846 54.6162 21.5765 54.4521 21.1982 54.2607C20.8245 54.0693 20.5465 53.8415 20.3643 53.5771C20.1865 53.3128 20.0977 52.9984 20.0977 52.6338C20.0977 52.0277 20.3529 51.515 20.8633 51.0957C21.3783 50.6764 22.0345 50.4668 22.832 50.4668C23.6706 50.4668 24.3496 50.6833 24.8691 51.1162C25.3932 51.5492 25.6553 52.1029 25.6553 52.7773H24.3838C24.3838 52.431 24.2357 52.1325 23.9395 51.8818C23.6478 51.6312 23.2786 51.5059 22.832 51.5059C22.3717 51.5059 22.0117 51.6061 21.752 51.8066C21.4922 52.0072 21.3623 52.2692 21.3623 52.5928C21.3623 52.8981 21.4831 53.1283 21.7246 53.2832C21.9661 53.4382 22.4014 53.5863 23.0303 53.7275C23.6637 53.8688 24.1764 54.0374 24.5684 54.2334C24.9603 54.4294 25.2497 54.6663 25.4365 54.9443C25.6279 55.2178 25.7236 55.5527 25.7236 55.9492C25.7236 56.61 25.4593 57.141 24.9307 57.542C24.402 57.9385 23.7161 58.1367 22.873 58.1367C22.2806 58.1367 21.7565 58.0319 21.3008 57.8223C20.8451 57.6126 20.4873 57.321 20.2275 56.9473C19.9723 56.569 19.8447 56.1611 19.8447 55.7236H21.1094C21.1322 56.1475 21.3008 56.4847 21.6152 56.7354C21.9342 56.9814 22.3535 57.1045 22.873 57.1045C23.3516 57.1045 23.7344 57.0088 24.0215 56.8174C24.3132 56.6214 24.459 56.3617 24.459 56.0381Z" fill="white"/>
<path d="M52.4082 53.0098L52.9141 48.0469H58.0137V49.2158H53.9873L53.6865 51.9297C54.1742 51.6426 54.7279 51.499 55.3477 51.499C56.2546 51.499 56.9746 51.7998 57.5078 52.4014C58.041 52.9984 58.3076 53.8073 58.3076 54.8281C58.3076 55.8535 58.0296 56.6624 57.4736 57.2549C56.9222 57.8428 56.1497 58.1367 55.1562 58.1367C54.2767 58.1367 53.5589 57.8929 53.0029 57.4053C52.4469 56.9176 52.1302 56.2432 52.0527 55.3818H53.249C53.3265 55.9515 53.5293 56.3822 53.8574 56.6738C54.1855 56.9609 54.6185 57.1045 55.1562 57.1045C55.7441 57.1045 56.2044 56.904 56.5371 56.5029C56.8743 56.1019 57.043 55.5482 57.043 54.8418C57.043 54.1764 56.8607 53.6432 56.4961 53.2422C56.1361 52.8366 55.6553 52.6338 55.0537 52.6338C54.5023 52.6338 54.0693 52.7546 53.7549 52.9961L53.4199 53.2695L52.4082 53.0098ZM67.5977 56.0381C67.5977 55.6963 67.4678 55.432 67.208 55.2451C66.9528 55.0537 66.5039 54.8896 65.8613 54.7529C65.2233 54.6162 64.7152 54.4521 64.3369 54.2607C63.9632 54.0693 63.6852 53.8415 63.5029 53.5771C63.3252 53.3128 63.2363 52.9984 63.2363 52.6338C63.2363 52.0277 63.4915 51.515 64.002 51.0957C64.5169 50.6764 65.1732 50.4668 65.9707 50.4668C66.8092 50.4668 67.4883 50.6833 68.0078 51.1162C68.5319 51.5492 68.7939 52.1029 68.7939 52.7773H67.5225C67.5225 52.431 67.3743 52.1325 67.0781 51.8818C66.7865 51.6312 66.4173 51.5059 65.9707 51.5059C65.5104 51.5059 65.1504 51.6061 64.8906 51.8066C64.6309 52.0072 64.501 52.2692 64.501 52.5928C64.501 52.8981 64.6217 53.1283 64.8633 53.2832C65.1048 53.4382 65.54 53.5863 66.1689 53.7275C66.8024 53.8688 67.3151 54.0374 67.707 54.2334C68.099 54.4294 68.3883 54.6663 68.5752 54.9443C68.7666 55.2178 68.8623 55.5527 68.8623 55.9492C68.8623 56.61 68.598 57.141 68.0693 57.542C67.5407 57.9385 66.8548 58.1367 66.0117 58.1367C65.4193 58.1367 64.8952 58.0319 64.4395 57.8223C63.9837 57.6126 63.626 57.321 63.3662 56.9473C63.111 56.569 62.9834 56.1611 62.9834 55.7236H64.248C64.2708 56.1475 64.4395 56.4847 64.7539 56.7354C65.0729 56.9814 65.4922 57.1045 66.0117 57.1045C66.4902 57.1045 66.873 57.0088 67.1602 56.8174C67.4518 56.6214 67.5977 56.3617 67.5977 56.0381Z" fill="white"/>
<path d="M124.153 37.6035L124.194 38.5332C124.759 37.8223 125.498 37.4668 126.409 37.4668C127.972 37.4668 128.761 38.3486 128.774 40.1123V45H127.51V40.1055C127.505 39.5723 127.382 39.1781 127.141 38.9229C126.904 38.6676 126.532 38.54 126.026 38.54C125.616 38.54 125.256 38.6494 124.946 38.8682C124.636 39.0869 124.395 39.374 124.222 39.7295V45H122.957V37.6035H124.153ZM133.751 45.1367C132.748 45.1367 131.933 44.8086 131.304 44.1523C130.675 43.4915 130.36 42.6097 130.36 41.5068V41.2744C130.36 40.5407 130.499 39.8867 130.777 39.3125C131.06 38.7337 131.452 38.2826 131.953 37.959C132.459 37.6309 133.006 37.4668 133.594 37.4668C134.555 37.4668 135.303 37.7835 135.836 38.417C136.369 39.0505 136.636 39.9574 136.636 41.1377V41.6641H131.625C131.643 42.3932 131.855 42.9834 132.261 43.4346C132.671 43.8812 133.19 44.1045 133.819 44.1045C134.266 44.1045 134.644 44.0133 134.954 43.8311C135.264 43.6488 135.535 43.4072 135.768 43.1064L136.54 43.708C135.92 44.6605 134.991 45.1367 133.751 45.1367ZM133.594 38.5059C133.083 38.5059 132.655 38.6927 132.309 39.0664C131.962 39.4355 131.748 39.9551 131.666 40.625H135.371V40.5293C135.335 39.8867 135.161 39.39 134.852 39.0391C134.542 38.6836 134.122 38.5059 133.594 38.5059ZM144.654 43.2568L146.076 37.6035H147.341L145.188 45H144.162L142.364 39.3945L140.614 45H139.589L137.442 37.6035H138.7L140.156 43.1406L141.879 37.6035H142.897L144.654 43.2568ZM158.354 41.3838C158.354 42.5094 158.096 43.4163 157.581 44.1045C157.066 44.7926 156.369 45.1367 155.489 45.1367C154.591 45.1367 153.885 44.8519 153.37 44.2822V47.8438H152.105V37.6035H153.261L153.322 38.4238C153.837 37.7858 154.553 37.4668 155.469 37.4668C156.357 37.4668 157.059 37.8018 157.574 38.4717C158.094 39.1416 158.354 40.0736 158.354 41.2676V41.3838ZM157.089 41.2402C157.089 40.4062 156.911 39.7477 156.556 39.2646C156.2 38.7816 155.713 38.54 155.093 38.54C154.327 38.54 153.753 38.8796 153.37 39.5586V43.0928C153.748 43.7673 154.327 44.1045 155.106 44.1045C155.713 44.1045 156.193 43.8652 156.549 43.3867C156.909 42.9036 157.089 42.1882 157.089 41.2402ZM161.231 38.499C161.792 37.8109 162.521 37.4668 163.419 37.4668C164.982 37.4668 165.771 38.3486 165.784 40.1123V45H164.52V40.1055C164.515 39.5723 164.392 39.1781 164.15 38.9229C163.913 38.6676 163.542 38.54 163.036 38.54C162.626 38.54 162.266 38.6494 161.956 38.8682C161.646 39.0869 161.405 39.374 161.231 39.7295V45H159.967V34.5H161.231V38.499ZM172.244 45C172.171 44.8542 172.112 44.5944 172.066 44.2207C171.479 44.8314 170.777 45.1367 169.961 45.1367C169.232 45.1367 168.632 44.9316 168.163 44.5215C167.698 44.1068 167.466 43.5827 167.466 42.9492C167.466 42.179 167.757 41.582 168.341 41.1582C168.929 40.7298 169.754 40.5156 170.815 40.5156H172.046V39.9346C172.046 39.4925 171.914 39.1416 171.649 38.8818C171.385 38.6175 170.995 38.4854 170.48 38.4854C170.029 38.4854 169.651 38.5993 169.346 38.8271C169.04 39.055 168.888 39.3307 168.888 39.6543H167.616C167.616 39.2852 167.746 38.9297 168.006 38.5879C168.27 38.2415 168.626 37.9681 169.072 37.7676C169.523 37.5671 170.018 37.4668 170.556 37.4668C171.408 37.4668 172.076 37.681 172.559 38.1094C173.042 38.5332 173.292 39.1188 173.311 39.8662V43.2705C173.311 43.9495 173.397 44.4896 173.57 44.8906V45H172.244ZM170.146 44.0361C170.542 44.0361 170.918 43.9336 171.273 43.7285C171.629 43.5234 171.886 43.2568 172.046 42.9287V41.4111H171.055C169.505 41.4111 168.73 41.8646 168.73 42.7715C168.73 43.168 168.863 43.4779 169.127 43.7012C169.391 43.9245 169.731 44.0361 170.146 44.0361ZM179.6 43.0381C179.6 42.6963 179.47 42.432 179.21 42.2451C178.955 42.0537 178.506 41.8896 177.863 41.7529C177.225 41.6162 176.717 41.4521 176.339 41.2607C175.965 41.0693 175.687 40.8415 175.505 40.5771C175.327 40.3128 175.238 39.9984 175.238 39.6338C175.238 39.0277 175.493 38.515 176.004 38.0957C176.519 37.6764 177.175 37.4668 177.973 37.4668C178.811 37.4668 179.49 37.6833 180.01 38.1162C180.534 38.5492 180.796 39.1029 180.796 39.7773H179.524C179.524 39.431 179.376 39.1325 179.08 38.8818C178.788 38.6312 178.419 38.5059 177.973 38.5059C177.512 38.5059 177.152 38.6061 176.893 38.8066C176.633 39.0072 176.503 39.2692 176.503 39.5928C176.503 39.8981 176.624 40.1283 176.865 40.2832C177.107 40.4382 177.542 40.5863 178.171 40.7275C178.804 40.8688 179.317 41.0374 179.709 41.2334C180.101 41.4294 180.39 41.6663 180.577 41.9443C180.769 42.2178 180.864 42.5527 180.864 42.9492C180.864 43.61 180.6 44.141 180.071 44.542C179.543 44.9385 178.857 45.1367 178.014 45.1367C177.421 45.1367 176.897 45.0319 176.441 44.8223C175.986 44.6126 175.628 44.321 175.368 43.9473C175.113 43.569 174.985 43.1611 174.985 42.7236H176.25C176.273 43.1475 176.441 43.4847 176.756 43.7354C177.075 43.9814 177.494 44.1045 178.014 44.1045C178.492 44.1045 178.875 44.0088 179.162 43.8174C179.454 43.6214 179.6 43.3617 179.6 43.0381ZM185.581 45.1367C184.578 45.1367 183.763 44.8086 183.134 44.1523C182.505 43.4915 182.19 42.6097 182.19 41.5068V41.2744C182.19 40.5407 182.329 39.8867 182.607 39.3125C182.89 38.7337 183.282 38.2826 183.783 37.959C184.289 37.6309 184.836 37.4668 185.424 37.4668C186.385 37.4668 187.133 37.7835 187.666 38.417C188.199 39.0505 188.466 39.9574 188.466 41.1377V41.6641H183.455C183.473 42.3932 183.685 42.9834 184.091 43.4346C184.501 43.8812 185.021 44.1045 185.649 44.1045C186.096 44.1045 186.474 44.0133 186.784 43.8311C187.094 43.6488 187.365 43.4072 187.598 43.1064L188.37 43.708C187.75 44.6605 186.821 45.1367 185.581 45.1367ZM185.424 38.5059C184.913 38.5059 184.485 38.6927 184.139 39.0664C183.792 39.4355 183.578 39.9551 183.496 40.625H187.201V40.5293C187.165 39.8867 186.992 39.39 186.682 39.0391C186.372 38.6836 185.952 38.5059 185.424 38.5059Z" fill="white"/>
<path fill-rule="evenodd" clip-rule="evenodd" d="M66 5.29V3.23C70.01 4.14 73 7.72 73 12C73 16.28 70.01 19.86 66 20.77V18.71C68.89 17.85 71 15.17 71 12C71 8.83 68.89 6.15 66 5.29ZM55 15V9H59L64 4V20L59 15H55ZM62 15.17V8.83L59.83 11H57V13H59.83L62 15.17ZM68.5 12C68.5 10.23 67.48 8.71 66 7.97V16.02C67.48 15.29 68.5 13.77 68.5 12Z" fill="#F2F2F2"/>
<path fill-rule="evenodd" clip-rule="evenodd" d="M125 5.29V3.23C129.01 4.14 132 7.72 132 12C132 16.28 129.01 19.86 125 20.77V18.71C127.89 17.85 130 15.17 130 12C130 8.83 127.89 6.15 125 5.29ZM114 15V9H118L123 4V20L118 15H114ZM121 15.17V8.83L118.83 11H116V13H118.83L121 15.17ZM127.5 12C127.5 10.23 126.48 8.71 125 7.97V16.02C126.48 15.29 127.5 13.77 127.5 12Z" fill="#F2F2F2"/>
<line x1="1" y1="30" x2="229" y2="30" stroke="white" stroke-width="4"/>
<line x1="115" y1="21" x2="115" y2="50" stroke="white" stroke-width="2"/>
<path d="M111.354 42.3535C111.549 42.1583 111.549 41.8417 111.354 41.6464L108.172 38.4645C107.976 38.2692 107.66 38.2692 107.464 38.4645C107.269 38.6597 107.269 38.9763 107.464 39.1716L110.293 42L107.464 44.8284C107.269 45.0237 107.269 45.3403 107.464 45.5355C107.66 45.7308 107.976 45.7308 108.172 45.5355L111.354 42.3535ZM4.37114e-08 42.5L111 42.5L111 41.5L-4.37114e-08 41.5L4.37114e-08 42.5Z" fill="white"/>
<path fill-rule="evenodd" clip-rule="evenodd" d="M7.25 9V15H11.25L16.25 20V4L11.25 9H7.25ZM18.25 7.97V16.02C19.73 15.29 20.75 13.77 20.75 12C20.75 10.23 19.73 8.71 18.25 7.97ZM14.25 15.17V8.83L12.08 11H9.25V13H12.08L14.25 15.17Z" fill="#F2F2F2"/>
</svg>